# xmcd
#
# Track frame offsets:
#	150
#	16437
#	36414
#	53463
#	72660
#	89198
#	105059
#	118603
#	134736
#	155204
#	171856
#	190087
#	202466
#	218817
#	234843
#	254190
#
# Disc length: 3573 seconds
#
# Revision: 1
# Processed by: cddbd v1.5.1PL0 Copyright (c) Steve Scherf et al.
# Submitted via: audiograbber 1.82.01
#
DISCID=f70df310
DTITLE=Eduardo Costa - ( Acústico )
DYEAR=2004
DGENRE=Sertanejo
TTITLE0=Quando o Amor é Pra Valer
TTITLE1=Rasgando a Madrugada
TTITLE2=Acabou o Amor
TTITLE3=Vida Pelo Avesso
TTITLE4=Fera Machucada
TTITLE5=Não Acredito
TTITLE6=Avião das Nove
TTITLE7=Poer Amar Você
TTITLE8=Coração Aberto
TTITLE9=Ilusão
TTITLE10=Vontade Dividida
TTITLE11=Coração da Pátria
TTITLE12=Eu Quero Esse Amor
TTITLE13=Eu Duvido
TTITLE14=Amor de Violeiro
TTITLE15=Camisa Manchada
EXTD=
EXTT0=
EXTT1=
EXTT2=
EXTT3=
EXTT4=
EXTT5=
EXTT6=
EXTT7=
EXTT8=
EXTT9=
EXTT10=
EXTT11=
EXTT12=
EXTT13=
EXTT14=
EXTT15=
PLAYORDER=
